<svg width="25" height="25" viewBox="0 0 25 25" fill="none" xmlns="http://www.w3.org/2000/svg">
<path fill-rule="evenodd" clip-rule="evenodd" d="M7.04 5.48926C7.1 6.37926 7.25 7.24926 7.49 8.07926L6.29 9.27926C5.88 8.07926 5.62 6.80926 5.53 5.48926H7.04ZM16.9 17.5093C17.75 17.7493 18.62 17.8993 19.5 17.9593V19.4493C18.18 19.3593 16.91 19.0993 15.7 18.6993L16.9 17.5093ZM8 3.48926H4.5C3.95 3.48926 3.5 3.93926 3.5 4.48926C3.5 13.8793 11.11 21.4893 20.5 21.4893C21.05 21.4893 21.5 21.0393 21.5 20.4893V16.9993C21.5 16.4493 21.05 15.9993 20.5 15.9993C19.26 15.9993 18.05 15.7993 16.93 15.4293C16.83 15.3893 16.72 15.3793 16.62 15.3793C16.36 15.3793 16.11 15.4793 15.91 15.6693L13.71 17.8693C10.88 16.4193 8.56 14.1093 7.12 11.2793L9.32 9.07926C9.6 8.79926 9.68 8.40926 9.57 8.05926C9.2 6.93926 9 5.73926 9 4.48926C9 3.93926 8.55 3.48926 8 3.48926Z" fill="#10A68C"/>
</svg>
