<svg width="32" height="33" viewBox="0 0 32 33" fill="none" xmlns="http://www.w3.org/2000/svg">
<path d="M27.1305 10.6618L12.9972 24.7951C12.872 24.9213 12.7016 24.9923 12.5238 24.9923C12.3461 24.9923 12.1757 24.9213 12.0505 24.7951L4.86383 17.6084C4.73761 17.4833 4.66663 17.3129 4.66663 17.1351C4.66663 16.9573 4.73761 16.7869 4.86383 16.6617L5.79716 15.7284C5.92233 15.6023 6.09273 15.5312 6.27049 15.5312C6.44825 15.5312 6.61865 15.6023 6.74383 15.7284L12.5172 21.5017L25.2505 8.76845C25.5142 8.51273 25.9334 8.51273 26.1972 8.76845L27.1305 9.71512C27.2568 9.84029 27.3277 10.0107 27.3277 10.1885C27.3277 10.3662 27.2568 10.5366 27.1305 10.6618Z" fill="#10A68C"/>
</svg>
