<svg width="29" height="28" viewBox="0 0 29 28" fill="none" xmlns="http://www.w3.org/2000/svg">
<path d="M6.33333 24.5C5.69167 24.5 5.14256 24.2717 4.686 23.8151C4.22944 23.3586 4.00078 22.8091 4 22.1666V5.83329C4 5.19163 4.22867 4.64251 4.686 4.18596C5.14333 3.7294 5.69244 3.50074 6.33333 3.49996H11.2333C11.4861 2.79996 11.9092 2.23607 12.5027 1.80829C13.0961 1.38051 13.7619 1.16663 14.5 1.16663C15.2381 1.16663 15.9043 1.38051 16.4985 1.80829C17.0927 2.23607 17.5154 2.79996 17.7667 3.49996H22.6667C23.3083 3.49996 23.8578 3.72863 24.3152 4.18596C24.7725 4.64329 25.0008 5.1924 25 5.83329V13.65C24.6306 13.475 24.2514 13.3245 23.8625 13.1985C23.4736 13.0725 23.075 12.9799 22.6667 12.9208V5.83329H6.33333V22.1666H13.3917C13.45 22.5944 13.5426 23.0027 13.6693 23.3916C13.7961 23.7805 13.9466 24.15 14.1208 24.5H6.33333ZM6.33333 21V22.1666V5.83329V12.9208V12.8333V21ZM8.66667 19.8333H13.4208C13.4792 19.425 13.5717 19.0263 13.6985 18.6375C13.8253 18.2486 13.9661 17.8694 14.1208 17.5H8.66667V19.8333ZM8.66667 15.1666H15.7833C16.4056 14.5833 17.1009 14.0972 17.8693 13.7083C18.6378 13.3194 19.4591 13.0569 20.3333 12.9208V12.8333H8.66667V15.1666ZM8.66667 10.5H20.3333V8.16663H8.66667V10.5ZM14.5 4.95829C14.7528 4.95829 14.962 4.87546 15.1277 4.70979C15.2933 4.54413 15.3758 4.33529 15.375 4.08329C15.3742 3.83129 15.2914 3.62246 15.1265 3.45679C14.9616 3.29113 14.7528 3.20829 14.5 3.20829C14.2472 3.20829 14.0384 3.29113 13.8735 3.45679C13.7086 3.62246 13.6258 3.83129 13.625 4.08329C13.6242 4.33529 13.7071 4.54451 13.8735 4.71096C14.0399 4.8774 14.2488 4.95985 14.5 4.95829ZM21.5 26.8333C19.8861 26.8333 18.5106 26.2643 17.3735 25.1265C16.2364 23.9886 15.6674 22.6131 15.6667 21C15.6659 19.3868 16.2348 18.0113 17.3735 16.8735C18.5122 15.7356 19.8877 15.1666 21.5 15.1666C23.1123 15.1666 24.4882 15.7356 25.6277 16.8735C26.7671 18.0113 27.3357 19.3868 27.3333 21C27.331 22.6131 26.7621 23.989 25.6265 25.1276C24.4909 26.2663 23.1154 26.8348 21.5 26.8333ZM20.9167 24.5H22.0833V21.5833H25V20.4166H22.0833V17.5H20.9167V20.4166H18V21.5833H20.9167V24.5Z" fill="white"/>
</svg>
