<svg width="29" height="28" viewBox="0 0 29 28" fill="none" xmlns="http://www.w3.org/2000/svg">
<path d="M4.5 3H6.49C6.9944 3.00009 7.48015 3.19077 7.84991 3.53384C8.21968 3.8769 8.44617 4.34702 8.484 4.85L8.49 5V23C8.48989 23.5046 8.29907 23.9904 7.9558 24.3602C7.61252 24.73 7.14216 24.9564 6.639 24.994L6.489 25H4.5C3.9956 24.9999 3.50985 24.8092 3.14009 24.4662C2.77032 24.1231 2.54383 23.653 2.506 23.15L2.5 23V5C2.49984 4.49542 2.69041 4.00943 3.0335 3.63945C3.37659 3.26947 3.84684 3.04284 4.35 3.005L4.5 3ZM11.495 3H13.49C13.9944 3.00009 14.4801 3.19077 14.8499 3.53384C15.2197 3.8769 15.4462 4.34702 15.484 4.85L15.49 5V23C15.4899 23.5046 15.2991 23.9904 14.9558 24.3602C14.6125 24.73 14.1422 24.9564 13.639 24.994L13.489 25H11.495C10.9904 25.0002 10.5044 24.8096 10.1345 24.4665C9.76447 24.1234 9.53784 23.6532 9.5 23.15L9.495 23V5C9.49484 4.49542 9.68541 4.00943 10.0285 3.63945C10.3716 3.26947 10.8418 3.04284 11.345 3.005L11.495 3ZM20.63 5.026C21.474 5.026 22.246 5.564 22.523 6.386L22.569 6.543L26.429 22.026C26.5514 22.5156 26.4843 23.0334 26.2409 23.4755C25.9976 23.9177 25.5961 24.2515 25.117 24.41L24.973 24.451L23.01 24.941C22.8473 24.981 22.6857 25.001 22.525 25.001C22.1069 25.0006 21.6994 24.8692 21.3599 24.6253C21.0204 24.3813 20.7658 24.0371 20.632 23.641L20.586 23.483L16.726 8C16.6039 7.51042 16.6713 6.99277 16.9148 6.55083C17.1583 6.10889 17.5599 5.77533 18.039 5.617L18.182 5.575L20.145 5.086C20.3077 5.046 20.4693 5.026 20.63 5.026ZM6.49 4.5H4.5C4.38297 4.49996 4.26964 4.54097 4.17974 4.61589C4.08984 4.69081 4.02906 4.79489 4.008 4.91L4 5V23C4 23.244 4.178 23.45 4.41 23.492L4.5 23.5H6.49C6.735 23.5 6.94 23.322 6.982 23.09L6.99 23V5C6.99004 4.88297 6.94903 4.76964 6.87411 4.67974C6.79919 4.58984 6.69511 4.52906 6.58 4.508L6.49 4.5ZM13.49 4.5H11.495C11.378 4.49996 11.2646 4.54097 11.1747 4.61589C11.0848 4.69081 11.0241 4.79489 11.003 4.91L10.995 5V23C10.995 23.244 11.172 23.45 11.405 23.492L11.495 23.5H13.49C13.735 23.5 13.94 23.322 13.982 23.09L13.99 23V5C13.99 4.88297 13.949 4.76964 13.8741 4.67974C13.7992 4.58984 13.6951 4.52906 13.58 4.508L13.49 4.5ZM20.63 6.526L20.569 6.53L20.507 6.541L18.545 7.031C18.4315 7.05932 18.3314 7.12657 18.2624 7.22104C18.1933 7.31551 18.1595 7.43121 18.167 7.548L18.181 7.636L22.041 23.12C22.106 23.38 22.338 23.5 22.525 23.5L22.587 23.497L22.647 23.484L24.61 22.995C24.7234 22.9667 24.8233 22.8996 24.8923 22.8054C24.9614 22.7111 24.9952 22.5956 24.988 22.479L24.974 22.389L21.114 6.905C21.0871 6.79695 21.0248 6.70099 20.9371 6.63233C20.8494 6.56368 20.7414 6.52625 20.63 6.526Z" fill="white"/>
</svg>
