<svg width="24" height="25" viewBox="0 0 24 25" fill="none" xmlns="http://www.w3.org/2000/svg">
<path d="M14.5565 21.5568C14.6097 21.7703 14.796 21.9287 15.016 21.9287C15.238 21.9287 15.4253 21.7672 15.478 21.5516C15.644 20.8722 15.9672 20.1412 16.4583 19.3584C17.5538 17.6296 19.6941 15.9329 21.6264 15.3852C21.8421 15.3241 22 15.1326 22 14.9084C22 14.6861 21.8447 14.4955 21.6305 14.4361C20.7555 14.1934 19.8963 13.7701 19.0651 13.1787C17.2643 11.9046 15.9068 10.0446 15.4796 8.30706C15.4263 8.09031 15.2376 7.92871 15.0144 7.92871C14.7946 7.92871 14.6077 8.08564 14.5536 8.29868C14.3417 9.13358 13.9497 9.94609 13.3776 10.7725C12.1599 12.539 10.2966 13.8699 8.36486 14.4311C8.1523 14.4928 8 14.6838 8 14.9052C8 15.1314 8.15899 15.3248 8.37698 15.3852C9.29403 15.6392 10.2218 16.1171 11.1354 16.8063C13.0859 18.2692 14.1833 20.0577 14.5565 21.5568Z" fill="white"/>
<path d="M6.74659 11.7162C6.77696 11.8382 6.88343 11.9287 7.00916 11.9287C7.136 11.9287 7.24303 11.8364 7.27315 11.7132C7.36803 11.325 7.55268 10.9072 7.83333 10.46C8.45934 9.47205 9.68234 8.50251 10.7865 8.18955C10.9097 8.15462 11 8.0452 11 7.91712C11 7.7901 10.9112 7.68118 10.7888 7.64722C10.2889 7.50851 9.79788 7.26667 9.32292 6.92871C8.29388 6.20062 7.51817 5.13778 7.27403 4.14491C7.24358 4.02105 7.13577 3.92871 7.00822 3.92871C6.88262 3.92871 6.77581 4.01838 6.74492 4.14012C6.62383 4.61721 6.39983 5.0815 6.07292 5.55371C5.37706 6.56319 4.31236 7.32369 3.20849 7.64435C3.08703 7.67963 3 7.78877 3 7.91526C3 8.04452 3.09085 8.15507 3.21542 8.18957C3.73945 8.33473 4.26958 8.60777 4.79167 9.00163C5.90622 9.83754 6.53334 10.8596 6.74659 11.7162Z" fill="white"/>
</svg>
