<svg xmlns="http://www.w3.org/2000/svg" id="Layer_1" data-name="Layer 1" viewBox="2.65 2.64 215.16 62.62">
  <defs>
    <style>
      .cls-1 {
        fill: #28283c;
      }

      .cls-2 {
        fill: none;
        stroke: #28283c;
        stroke-miterlimit: 10;
        stroke-width: .32px;
      }
    </style>
  </defs>
  <path class="cls-1" d="M214.02,4.78c.38,0,.68,.1,.91,.29,.23,.2,.34,.46,.34,.79s-.12,.59-.35,.78c-.23,.19-.54,.28-.91,.28l-.04,.03h-.91v1.54h-.45v-3.71h1.41Zm0,1.75c.27,0,.46-.06,.59-.17,.13-.11,.19-.28,.19-.5s-.06-.39-.19-.5c-.13-.11-.33-.17-.59-.17h-.95v1.33h.95Zm.26,.09l1.23,1.87h-.53l-1.07-1.63,.38-.25Z"/>
  <g>
    <rect class="cls-1" x="3.51" y="60.69" width="30.61" height=".31"/>
    <rect class="cls-1" x="178.89" y="60.69" width="30.61" height=".31"/>
    <g>
      <g>
        <path class="cls-1" d="M80.12,20.74c-6.36,0-7.96-2.05-7.96-4.31,0-3.26,3.51-6.16,7.72-6.16,4.76,0,7.61,1.15,11.62,4.41l3.41-4.01c-4.46-4.31-9.37-5.91-15.03-5.91-8.02,0-13.78,5.66-13.78,11.72,0,6.36,4.86,9.67,13.78,9.67,5.41,0,11.07,0,11.07,5.71,0,4.66-5.56,6.76-11.07,6.76-5.86,0-9.52-3.51-11.47-5.86l-3.91,3.65c3.76,4.86,9.67,7.67,15.38,7.67,9.47,0,16.68-4.71,16.68-12.22,0-7.06-3.36-11.12-16.43-11.12Z"/>
        <path class="cls-1" d="M114.56,14.72v28.52h5.31V14.72h-5.31Zm-13.33-8.85v5.51h31.81V5.87h-31.81Z"/>
        <path class="cls-1" d="M145.63,37.78v-9.52c2.25-1.2,4.66-1.45,7.06-1.45h8.16v-5.56h-8.16c-2.45,0-4.81,.15-7.06,1.45V11.38h20.84V5.87h-26.3V43.24h28.5v-5.46h-23.04Z"/>
        <path class="cls-1" d="M208.29,37.73h-.55c-2.4,0-3.25-.75-5.61-4.21l-2.9-5.96c5.41-1.35,8.61-5.01,8.61-10.67,0-7.06-4.96-11.02-11.77-11.02h-19.64V43.24h5.46V11.33h14.18c3.56,0,6.36,1.35,6.36,5.26s-2.6,5.71-6.36,5.71h-7.11c-1.27,0-2.51,.04-3.72,.26v5.51c1.23-.24,2.48-.3,3.72-.3h4.36l4.56,9.57c2.85,5.91,7.26,5.91,11.62,5.91v-5.56l-1.2,.05Z"/>
      </g>
      <g>
        <path class="cls-1" d="M29.6,23.99l-4.09,1.22h0c-.5,.15-.89,.54-1.04,1.04l-1.23,4.09-1.23-4.09c-.15-.5-.54-.89-1.04-1.04h0s-4.09-1.23-4.09-1.23l4.1-1.23h0c.5-.15,.89-.54,1.03-1.04l1.23-4.1,1.23,4.1c.15,.5,.54,.89,1.03,1.04h0s4.1,1.23,4.1,1.23Z"/>
        <g>
          <path class="cls-1" d="M38.24,25.65h5.6c-.85,10.63-9.75,18.99-20.6,18.99S3.5,36.28,2.65,25.65h5.6c.83,7.54,7.24,13.43,15,13.43s14.17-5.89,15-13.43Z"/>
          <path class="cls-1" d="M43.84,22.32h-5.6c-.83-7.54-7.24-13.43-15-13.43s-14.17,5.88-15,13.43H2.65C3.5,11.69,12.39,3.32,23.24,3.32s19.75,8.36,20.6,18.99Z"/>
        </g>
        <rect class="cls-1" x="52.12" y="5.87" width="5.36" height="37.37"/>
      </g>
    </g>
    <g>
      <path class="cls-1" d="M51.37,65.26c-.89,0-1.67-.2-2.32-.59-.65-.39-1.16-.95-1.51-1.68-.36-.72-.53-1.58-.53-2.58s.19-1.86,.56-2.58c.38-.72,.9-1.28,1.58-1.68,.67-.39,1.45-.59,2.32-.59,.93,0,1.69,.18,2.27,.53,.58,.35,1.06,.89,1.42,1.63l-1.04,.57c-.21-.54-.54-.95-.99-1.23s-1.01-.42-1.66-.42-1.2,.15-1.69,.45c-.49,.3-.87,.73-1.16,1.3-.28,.57-.42,1.24-.42,2.03s.12,1.47,.36,2.03c.24,.57,.6,1,1.08,1.3,.48,.3,1.07,.45,1.76,.45,.39,0,.75-.05,1.09-.15,.34-.1,.63-.25,.88-.45,.25-.2,.45-.45,.59-.76,.14-.3,.21-.66,.21-1.07v-.33h-2.99v-1.07h4.04v4.75h-.9l-.06-1.75,.24,.04c-.25,.59-.64,1.05-1.17,1.37-.53,.32-1.19,.48-1.98,.48Z"/>
      <path class="cls-1" d="M71.87,64.04h5.39v1.07h-6.53v-9.41h1.14v8.34Z"/>
      <path class="cls-1" d="M95.56,55.56c.89,0,1.67,.2,2.32,.59,.65,.39,1.15,.95,1.51,1.68,.36,.72,.53,1.58,.53,2.58s-.18,1.86-.53,2.58c-.36,.72-.86,1.28-1.51,1.68-.65,.39-1.42,.59-2.32,.59s-1.67-.2-2.32-.59c-.65-.39-1.16-.95-1.51-1.68-.36-.72-.53-1.58-.53-2.58s.18-1.86,.53-2.58c.36-.72,.86-1.28,1.51-1.68,.65-.39,1.42-.59,2.32-.59Zm0,1.07c-.65,0-1.21,.15-1.68,.45-.48,.3-.84,.73-1.1,1.3-.26,.57-.38,1.24-.38,2.03s.13,1.47,.38,2.03c.26,.57,.62,1,1.1,1.3,.48,.3,1.04,.45,1.68,.45s1.22-.15,1.69-.45c.47-.3,.83-.73,1.09-1.3,.26-.57,.39-1.24,.39-2.03s-.13-1.47-.39-2.03c-.26-.57-.62-1-1.09-1.3-.47-.3-1.03-.45-1.69-.45Z"/>
      <path class="cls-1" d="M115.26,65.11v-9.41h3.35c1.11,0,1.92,.23,2.44,.7,.51,.47,.77,1.1,.77,1.9,0,.48-.14,.91-.41,1.29-.28,.39-.67,.63-1.17,.73h0c.56,.12,1.01,.37,1.33,.78,.33,.4,.49,.86,.49,1.38,0,.8-.3,1.44-.9,1.92-.6,.48-1.45,.72-2.57,.72h-3.34Zm1.14-5.28h2.22c1.33,0,2-.51,2-1.54s-.67-1.53-2-1.53h-2.22v3.07Zm0,4.21h2.47c.67,0,1.18-.14,1.5-.41,.33-.28,.49-.66,.49-1.15s-.16-.89-.49-1.16-.83-.41-1.5-.41h-2.47v3.14Z"/>
      <path class="cls-1" d="M136.1,65.11l3.66-9.41h1.35l3.65,9.41h-1.21l-2.68-7.02-.44-1.31h-.03l-.41,1.27-2.69,7.06h-1.2Zm1.8-2.61v-1.07h5.03v1.07h-5.03Z"/>
      <path class="cls-1" d="M160.65,64.04h5.39v1.07h-6.53v-9.41h1.14v8.34Z"/>
    </g>
  </g>
  <circle class="cls-2" cx="213.81" cy="6.64" r="3.84"/>
</svg>