<svg width="172" height="36" viewBox="0 0 172 36" fill="none" xmlns="http://www.w3.org/2000/svg">
<rect width="36" height="36" rx="3" fill="#232525"/>
<rect x="8.33093" y="15.5073" width="7.65957" height="2.48936" rx="1.24468" transform="rotate(-45 8.33093 15.5073)" fill="#00E151"/>
<rect x="18.7571" y="25.9334" width="7.65957" height="2.48936" rx="1.24468" transform="rotate(-45 18.7571 25.9334)" fill="#FE405A"/>
<rect x="9.00793" y="19.9756" width="13.4043" height="2.48936" rx="1.24468" transform="rotate(-45 9.00793 19.9756)" fill="#00E151"/>
<rect x="14.0179" y="25.2563" width="13.4043" height="2.48936" rx="1.24468" transform="rotate(-45 14.0179 25.2563)" fill="#FE405A"/>
<rect x="9.54956" y="24.5793" width="17.8085" height="2.48936" rx="1.24468" transform="rotate(-45 9.54956 24.5793)" fill="#D9D9D9"/>
<path d="M25.4595 10.4297L23.9258 15.5985L20.2907 11.9633L25.4595 10.4297Z" fill="#D9D9D9"/>
<path d="M57.8089 28.2962C56.4762 28.2962 55.2339 28.0576 54.0822 27.5804C52.947 27.1033 51.9433 26.437 51.0713 25.5814C50.2158 24.7258 49.5412 23.7222 49.0476 22.5705C48.5704 21.4188 48.3319 20.1601 48.3319 18.7945C48.3319 17.4289 48.5704 16.1702 49.0476 15.0185C49.5412 13.8503 50.2158 12.8467 51.0713 12.0076C51.9269 11.152 52.9305 10.4939 54.0822 10.0332C55.2339 9.55606 56.4762 9.31749 57.8089 9.31749C59.158 9.31749 60.4002 9.55606 61.5355 10.0332C62.6872 10.4939 63.6908 11.152 64.5464 12.0076C65.4184 12.8631 66.093 13.8668 66.5701 15.0185C67.0473 16.1702 67.2859 17.4289 67.2859 18.7945C67.2859 20.1601 67.0391 21.4188 66.5455 22.5705C66.0683 23.7222 65.402 24.7258 64.5464 25.5814C63.6908 26.437 62.6872 27.1033 61.5355 27.5804C60.3838 28.0576 59.1416 28.2962 57.8089 28.2962ZM57.8089 25.6308C58.7631 25.6308 59.6352 25.458 60.4249 25.1125C61.2311 24.767 61.9304 24.2898 62.5227 23.6811C63.115 23.0558 63.5757 22.3319 63.9047 21.5092C64.2338 20.6701 64.3983 19.7652 64.3983 18.7945C64.3983 17.8238 64.2338 16.9271 63.9047 16.1044C63.5757 15.2817 63.115 14.5578 62.5227 13.9326C61.9304 13.3074 61.2311 12.822 60.4249 12.4765C59.6352 12.131 58.7631 11.9582 57.8089 11.9582C56.8546 11.9582 55.9743 12.131 55.1681 12.4765C54.3784 12.822 53.6874 13.3074 53.095 13.9326C52.5027 14.5578 52.042 15.2817 51.713 16.1044C51.4004 16.9271 51.2441 17.8238 51.2441 18.7945C51.2441 19.7652 51.4004 20.6701 51.713 21.5092C52.042 22.3319 52.5027 23.0558 53.095 23.6811C53.6874 24.2898 54.3866 24.767 55.1928 25.1125C55.999 25.458 56.871 25.6308 57.8089 25.6308ZM69.53 28V14.6483H72.1954V17.2643L71.8745 16.9188C72.2036 16.0797 72.7301 15.4463 73.454 15.0185C74.178 14.5743 75.0171 14.3521 75.9714 14.3521C76.9585 14.3521 77.8306 14.566 78.5874 14.9938C79.3442 15.4216 79.9366 16.0139 80.3643 16.7708C80.7921 17.5276 81.006 18.3996 81.006 19.3868V28H78.2419V20.1272C78.2419 19.4526 78.1185 18.885 77.8717 18.4243C77.6249 17.9471 77.2712 17.5852 76.8105 17.3384C76.3662 17.0751 75.8562 16.9435 75.2803 16.9435C74.7045 16.9435 74.1862 17.0751 73.7255 17.3384C73.2813 17.5852 72.9358 17.9471 72.689 18.4243C72.4422 18.9014 72.3188 19.4691 72.3188 20.1272V28H69.53ZM83.5218 28V9.61365H95.4914V12.205H86.434V17.7333H94.5042V20.3246H86.434V28H83.5218ZM96.9225 28V14.6483H99.7113V28H96.9225ZM96.9225 12.822V9.61365H99.7113V12.822H96.9225ZM102.231 28V14.6483H104.897V17.2643L104.576 16.9188C104.905 16.0797 105.432 15.4463 106.156 15.0185C106.879 14.5743 107.719 14.3521 108.673 14.3521C109.66 14.3521 110.532 14.566 111.289 14.9938C112.046 15.4216 112.638 16.0139 113.066 16.7708C113.494 17.5276 113.708 18.3996 113.708 19.3868V28H110.943V20.1272C110.943 19.4526 110.82 18.885 110.573 18.4243C110.326 17.9471 109.973 17.5852 109.512 17.3384C109.068 17.0751 108.558 16.9435 107.982 16.9435C107.406 16.9435 106.888 17.0751 106.427 17.3384C105.983 17.5852 105.637 17.9471 105.39 18.4243C105.144 18.9014 105.02 19.4691 105.02 20.1272V28H102.231ZM119.95 28.2962C119.045 28.2962 118.247 28.1399 117.556 27.8272C116.881 27.4982 116.355 27.0539 115.977 26.4945C115.598 25.9187 115.409 25.2441 115.409 24.4708C115.409 23.7469 115.565 23.097 115.878 22.5211C116.207 21.9453 116.709 21.4599 117.383 21.065C118.058 20.6701 118.905 20.3904 119.925 20.2259L124.565 19.4608V21.6573L120.468 22.373C119.728 22.5047 119.185 22.7432 118.839 23.0887C118.494 23.4178 118.321 23.8456 118.321 24.3721C118.321 24.8821 118.51 25.3017 118.889 25.6308C119.284 25.9434 119.785 26.0997 120.394 26.0997C121.151 26.0997 121.809 25.9351 122.369 25.6061C122.944 25.277 123.389 24.841 123.701 24.298C124.014 23.7386 124.17 23.1217 124.17 22.4471V19.0166C124.17 18.3585 123.923 17.8238 123.43 17.4124C122.953 16.9846 122.311 16.7708 121.505 16.7708C120.764 16.7708 120.114 16.9682 119.555 17.3631C119.012 17.7415 118.609 18.2351 118.346 18.8438L116.026 17.6839C116.273 17.0258 116.676 16.4499 117.235 15.9563C117.795 15.4463 118.444 15.0514 119.185 14.7717C119.942 14.492 120.74 14.3521 121.579 14.3521C122.632 14.3521 123.561 14.5496 124.368 14.9445C125.19 15.3393 125.824 15.8905 126.268 16.598C126.729 17.289 126.959 18.0952 126.959 19.0166V28H124.294V25.5814L124.861 25.6554C124.549 26.1984 124.145 26.6673 123.652 27.0622C123.175 27.457 122.624 27.7614 121.998 27.9753C121.39 28.1892 120.707 28.2962 119.95 28.2962ZM129.479 28V14.6483H132.145V17.2643L131.824 16.9188C132.153 16.0797 132.68 15.4463 133.403 15.0185C134.127 14.5743 134.966 14.3521 135.921 14.3521C136.908 14.3521 137.78 14.566 138.537 14.9938C139.294 15.4216 139.886 16.0139 140.314 16.7708C140.742 17.5276 140.955 18.3996 140.955 19.3868V28H138.191V20.1272C138.191 19.4526 138.068 18.885 137.821 18.4243C137.574 17.9471 137.221 17.5852 136.76 17.3384C136.316 17.0751 135.806 16.9435 135.23 16.9435C134.654 16.9435 134.136 17.0751 133.675 17.3384C133.231 17.5852 132.885 17.9471 132.638 18.4243C132.392 18.9014 132.268 19.4691 132.268 20.1272V28H129.479ZM149.542 28.2962C148.21 28.2962 147.025 27.9918 145.989 27.383C144.968 26.7578 144.154 25.9187 143.545 24.8657C142.953 23.8127 142.657 22.6198 142.657 21.2871C142.657 19.9709 142.953 18.7863 143.545 17.7333C144.138 16.6803 144.952 15.8576 145.989 15.2653C147.025 14.6565 148.21 14.3521 149.542 14.3521C150.447 14.3521 151.295 14.5167 152.084 14.8457C152.874 15.1583 153.557 15.5944 154.133 16.1538C154.725 16.7132 155.161 17.3631 155.441 18.1035L152.998 19.2387C152.718 18.5477 152.265 17.9965 151.64 17.5852C151.031 17.1574 150.332 16.9435 149.542 16.9435C148.786 16.9435 148.103 17.1327 147.494 17.5111C146.902 17.8731 146.433 18.3914 146.087 19.066C145.742 19.7241 145.569 20.4727 145.569 21.3118C145.569 22.1509 145.742 22.9078 146.087 23.5823C146.433 24.2405 146.902 24.7587 147.494 25.1372C148.103 25.5156 148.786 25.7048 149.542 25.7048C150.349 25.7048 151.048 25.4991 151.64 25.0878C152.249 24.66 152.701 24.0924 152.998 23.3849L155.441 24.5448C155.178 25.2523 154.75 25.894 154.158 26.4699C153.582 27.0293 152.899 27.4735 152.109 27.8026C151.319 28.1316 150.464 28.2962 149.542 28.2962ZM163.695 28.2962C162.362 28.2962 161.178 27.9918 160.141 27.383C159.121 26.7578 158.323 25.9187 157.747 24.8657C157.171 23.7962 156.883 22.6034 156.883 21.2871C156.883 19.938 157.171 18.7451 157.747 17.7086C158.339 16.672 159.129 15.8576 160.116 15.2653C161.103 14.6565 162.222 14.3521 163.473 14.3521C164.476 14.3521 165.373 14.5249 166.163 14.8704C166.953 15.2159 167.619 15.6931 168.162 16.3018C168.705 16.8941 169.116 17.577 169.396 18.3502C169.692 19.1235 169.84 19.9462 169.84 20.8182C169.84 21.0321 169.832 21.2542 169.815 21.4846C169.799 21.7149 169.766 21.9288 169.717 22.1262H159.08V19.9051H168.137L166.804 20.9169C166.969 20.1107 166.911 19.395 166.632 18.7698C166.368 18.1281 165.957 17.6263 165.398 17.2643C164.855 16.8859 164.213 16.6967 163.473 16.6967C162.732 16.6967 162.074 16.8859 161.498 17.2643C160.922 17.6263 160.478 18.1528 160.166 18.8438C159.853 19.5184 159.73 20.3411 159.795 21.3118C159.713 22.2167 159.837 23.0065 160.166 23.6811C160.511 24.3556 160.988 24.8821 161.597 25.2606C162.222 25.639 162.93 25.8282 163.72 25.8282C164.526 25.8282 165.209 25.6472 165.768 25.2852C166.344 24.9233 166.796 24.4544 167.125 23.8785L169.396 24.9891C169.133 25.6143 168.721 26.1819 168.162 26.692C167.619 27.1856 166.961 27.5804 166.187 27.8766C165.431 28.1563 164.6 28.2962 163.695 28.2962Z" fill="#10A68C"/>
</svg>
